<?xml version="1.0" encoding="UTF-8"?> 
<svg version="1.1" xmlns="http://www.w3.org/2000/svg" width="1280" height="1071">
<path d="M0 0 C1.93352577 -0.0076664 1.93352577 -0.0076664 3.90611267 -0.01548767 C7.41869939 -0.02879528 10.93117797 -0.02946548 14.44378495 -0.02692437 C17.38822807 -0.0258488 20.33264984 -0.03075306 23.27708834 -0.03552979 C30.23096602 -0.04659702 37.18478967 -0.04707846 44.13867188 -0.04101562 C51.28403817 -0.03498106 58.42920729 -0.04728002 65.57453996 -0.06858569 C71.73453096 -0.08626987 77.8944596 -0.09219227 84.05447501 -0.08894795 C87.72236894 -0.08714539 91.39012227 -0.0896673 95.05799294 -0.10366249 C99.15467508 -0.11871098 103.25096269 -0.1092115 107.34765625 -0.09765625 C108.5433725 -0.10529999 109.73908875 -0.11294373 110.97103882 -0.12081909 C126.34923123 -0.02544441 140.0098704 4.31658924 151.30541992 15.0871582 C158.05055394 22.3753787 161.88605067 30.05374518 165.50463867 39.20043945 C165.85250931 40.07536545 166.20037994 40.95029144 166.55879211 41.85173035 C170.26178828 51.20426952 173.83548737 60.60545692 177.39297485 70.01409912 C178.59280657 73.18599418 179.79574994 76.35669408 180.99951172 79.52709961 C184.81091632 89.56654677 188.61696372 99.60799784 192.41262722 109.6534071 C194.5379697 115.27699946 196.67003236 120.89802454 198.80386353 126.5184021 C199.71324249 128.91727797 200.62032999 131.3170239 201.5249939 133.71768188 C202.79623277 137.0904777 204.07538587 140.46017694 205.35620117 143.8293457 C205.90831772 145.30299339 205.90831772 145.30299339 206.47158813 146.80641174 C212.70271449 163.59228501 212.70271449 163.59228501 225.84761637 174.82493442 C230.57203349 176.81064405 235.13690282 176.6901472 240.19668293 176.65383244 C241.74410115 176.66065851 241.74410115 176.66065851 243.32278034 176.66762248 C246.79013012 176.6792613 250.25709018 176.66950917 253.72444153 176.65992737 C256.23123699 176.66393321 258.73803063 176.66925883 261.24482077 176.67579311 C266.70059328 176.68701156 272.15624788 176.68894457 277.61202621 176.68273354 C285.72506193 176.67356085 293.83801678 176.68158885 301.95104609 176.69323063 C315.60120195 176.7123708 329.25133107 176.71787468 342.90149879 176.71591377 C356.42412347 176.71407406 369.94671799 176.71928476 383.46933556 176.73359489 C384.73078518 176.73492971 384.73078518 176.73492971 386.01771864 176.7362915 C390.28879557 176.74086138 394.55987233 176.74557853 398.83094903 176.75036632 C407.5164652 176.76006605 416.20198233 176.76879739 424.88749981 176.77722836 C425.7570016 176.77807261 426.6265034 176.77891686 427.52235374 176.7797867 C448.21900057 176.7996363 468.91565062 176.80962845 489.61230469 176.81835938 C490.97066953 176.81893637 490.97066953 176.81893637 492.35647609 176.81952503 C499.69354574 176.82264098 507.03061541 176.82573212 514.36768509 176.82878273 C535.4892652 176.83758025 556.61084366 176.84880171 577.73242188 176.86132812 C578.63705655 176.86186148 579.54169123 176.86239483 580.47373908 176.86294434 C601.12848253 176.87516099 621.7832226 176.88945751 642.43796062 176.90888119 C643.74024591 176.91010347 643.74024591 176.91010347 645.06884 176.91135045 C653.73654805 176.91951749 662.40425578 176.92795455 671.07196312 176.93684035 C689.69311019 176.9558327 708.31423573 176.96881764 726.93539299 176.96983509 C740.51051436 176.97062811 754.08561761 176.97801804 767.66073159 176.99236483 C775.72597947 177.00063788 783.79118416 177.00323515 791.85643469 176.99781466 C797.87771815 176.99436632 803.89894298 177.00125873 809.9202195 177.01215445 C812.35691354 177.01492478 814.79361425 177.01430497 817.23030601 177.00997335 C820.54083401 177.00456314 823.85112093 177.01142759 827.16163349 177.02132511 C828.10880445 177.01681789 829.05597541 177.01231066 830.03184852 177.00766686 C843.04973108 177.08294567 856.11377961 180.46022425 865.86791992 189.5871582 C874.33025281 199.11796747 879.29396396 210.88014222 879.07885742 223.6574707 C878.29573787 233.37395402 875.50611134 241.35811833 869.86791992 249.2746582 C869.10479492 250.3471582 868.34166992 251.4196582 867.55541992 252.5246582 C859.7244311 260.53776304 848.98941821 266.2265314 837.68052179 266.40066606 C835.97573068 266.40626591 834.27091623 266.40635006 832.5661211 266.40215015 C831.62123533 266.40379399 830.67634956 266.40543782 829.70283088 266.40713146 C826.51857276 266.41146278 823.33436006 266.40866624 820.15010071 266.40596008 C817.85127339 266.40766169 815.55244637 266.40981113 813.25361985 266.41237134 C808.24607483 266.41697428 803.23854219 266.41838804 798.23099518 266.41740608 C790.78440764 266.41595221 783.33783274 266.41995771 775.89124753 266.42548656 C764.13135527 266.43414004 752.37146449 266.43950025 740.61156959 266.44268807 C721.94168199 266.44782974 703.27181351 266.46329452 684.60193535 266.48226456 C680.62890528 266.48628607 676.65587511 266.49020697 672.68284494 266.49413091 C671.49482047 266.49530489 671.49482047 266.49530489 670.28279551 266.4965026 C668.67783363 266.49808817 667.07287174 266.499673 665.46790985 266.50125708 C663.85700359 266.50284836 662.24609733 266.50444261 660.63519108 266.50603981 C641.63570169 266.52487219 622.63621101 266.54195742 603.63671875 266.55761719 C602.80531855 266.55830611 601.97391835 266.55899503 601.1173242 266.55970482 C574.1566283 266.58196761 547.19593795 266.59380548 520.23523434 266.60128374 C492.51775798 266.60904799 464.80031946 266.63010411 437.08286576 266.66682635 C433.16843054 266.67200002 429.25399513 266.67700736 425.33955956 266.68190575 C424.1839727 266.68335618 424.1839727 266.68335618 423.00504066 266.68483592 C410.60609553 266.69997898 398.20718829 266.70087073 385.80823645 266.69624862 C373.3463322 266.69186503 360.88450565 266.70177372 348.42262421 266.72633568 C341.67108429 266.73923177 334.91971144 266.74515319 328.1681633 266.73391914 C321.98792952 266.72376773 315.80800238 266.73196515 309.6278049 266.7547821 C307.39159137 266.7597855 305.15535042 266.75803125 302.91915015 266.74884943 C299.87870624 266.73734663 296.83930774 266.75047056 293.79892445 266.76964283 C292.49763637 266.7558585 292.49763637 266.7558585 291.17005965 266.74179569 C284.45575675 266.82493436 277.46007065 268.22028356 272.20749416 272.68650385 C267.81572389 277.68833448 266.38192207 282.41780125 266.55541992 288.93481445 C267.2658063 294.25383242 269.74625322 298.54245978 273.68041992 302.1496582 C279.5499891 306.06270432 285.42285707 306.56882073 292.32259846 306.52799129 C293.15160576 306.53108857 293.98061306 306.53418584 294.8347418 306.53737697 C297.61282489 306.54533859 300.39069244 306.53909628 303.16877747 306.53294373 C305.1805959 306.53579852 307.19241325 306.53953661 309.20422858 306.54408222 C314.73309453 306.55406911 320.26189707 306.55168818 325.79076779 306.54735529 C331.75340787 306.54488046 337.71603123 306.5539456 343.67866516 306.56173706 C354.01177528 306.57378593 364.34487138 306.57891449 374.67798805 306.57961845 C389.62886406 306.58079743 404.57970328 306.59600229 419.53056594 306.61511362 C426.49791167 306.62401263 433.46525815 306.63228223 440.43260479 306.64043522 C441.13008221 306.64125297 441.82755963 306.64207072 442.54617273 306.64291326 C459.1450362 306.6622489 475.74390338 306.67579072 492.34277344 306.68798828 C493.4320666 306.68879347 493.4320666 306.68879347 494.54336568 306.68961493 C511.48592043 306.70210979 528.42847564 306.71289052 545.37103271 306.72167969 C551.2480062 306.72474972 557.12497967 306.72784204 563.00195312 306.73095703 C563.72730109 306.73133884 564.45264906 306.73172066 565.19997727 306.73211404 C581.7642758 306.74087883 598.32856651 306.75204027 614.89285564 306.77208805 C615.58929644 306.77293072 616.28573724 306.77377338 617.00328231 306.77464158 C623.95673271 306.78312523 630.91018228 306.7921204 637.86363108 306.80183335 C641.28471981 306.80659475 644.70580873 306.81121025 648.12689781 306.81572151 C649.13681436 306.81705333 649.13681436 306.81705333 650.16713327 306.81841206 C660.99826525 306.83233688 671.82937216 306.83498446 682.66051174 306.83304186 C693.54714965 306.831246 704.43373539 306.84012728 715.32035664 306.85935026 C721.21722702 306.86939959 727.11399599 306.8745186 733.01087189 306.86658287 C738.41010732 306.8594032 743.80914522 306.86598872 749.20835551 306.88346828 C751.16052861 306.88734984 753.11271976 306.88617747 755.064885 306.87941139 C770.74834341 306.82936896 783.38238303 308.38685939 795.55541992 319.3371582 C804.73327352 329.14571738 808.39668279 341.11251675 808.11401367 354.23168945 C807.19380672 365.61012145 802.33006619 376.93558678 793.84057617 384.71606445 C781.44359918 394.5109037 769.45557485 395.7184502 754.18041992 395.64646912 C752.38050104 395.64904618 750.58058365 395.65294942 748.78067017 395.6580587 C743.85142084 395.66830637 738.92235125 395.6600469 733.99311066 395.64876187 C728.67061013 395.63989354 723.34813465 395.64841603 718.02563477 395.65496826 C708.80735654 395.66411736 699.58912813 395.66280168 690.37084961 395.65478325 C677.0319453 395.64354553 663.69311186 395.65259805 650.35421371 395.66734505 C628.69732534 395.69110887 607.04044571 395.70448132 585.38354492 395.70849609 C584.087915 395.70874096 582.79228508 395.70898583 581.45739365 395.70923812 C566.99983453 395.71178447 552.54227608 395.71235055 538.0847168 395.71130371 C532.84057617 395.71097067 527.59643555 395.71068528 522.35229492 395.71044922 C521.05824612 395.71038643 519.76419731 395.71032364 518.43093491 395.71025895 C496.85409418 395.70965416 475.27729386 395.72453294 453.70046997 395.75128227 C440.39491613 395.76708932 427.08949269 395.76934329 413.78393745 395.75414825 C404.66851992 395.74468683 395.55318104 395.74943305 386.43777275 395.76536208 C381.17879924 395.77406132 375.92003469 395.77618462 370.66107178 395.76083565 C365.84478061 395.74689076 361.02886757 395.75137334 356.21259689 395.77035666 C354.47248758 395.77396303 352.7323482 395.77083603 350.99226761 395.76020699 C336.72879758 395.48358284 336.72879758 395.48358284 324.23779297 401.65112776 C320.4023268 405.8468179 319.0596107 410.16605965 318.55541992 415.7121582 C319.15125713 422.50470242 321.73851333 426.87802398 326.86791992 431.2746582 C331.98916675 434.77209506 335.88336513 435.39941675 342.02693176 435.40215015 C343.29893496 435.4051578 344.57093815 435.40816545 345.88148689 435.41126424 C347.29599136 435.40957665 348.71049573 435.40780559 350.125 435.40596008 C351.6254526 435.40766207 353.12590474 435.40981167 354.62635612 435.41237134 C357.89266544 435.41697128 361.1589558 435.41838863 364.42526817 435.41740608 C369.73980327 435.4158144 375.05431954 435.42101321 380.36885071 435.42703247 C388.08609003 435.4351492 395.80332604 435.44009066 403.52056885 435.44332314 C415.72279247 435.44881949 427.92498814 435.46571739 440.12719727 435.48466492 C444.30200191 435.49102191 448.47680662 435.49733033 452.65161133 435.50364208 C453.69500947 435.50522584 454.73840761 435.50680961 455.81342387 435.50844136 C467.69405466 435.52638252 479.57468743 435.54260596 491.45532227 435.55761719 C492.54148693 435.55899306 493.62765159 435.56036893 494.74673033 435.5617865 C512.33701964 435.58370304 529.92730177 435.59446929 547.51760232 435.60198794 C565.57993738 435.61006414 583.64221082 435.633372 601.70451069 435.6699416 C612.8430999 435.6919482 623.98156236 435.70163686 635.1201722 435.69544127 C642.7588053 435.69226221 650.39733032 435.70362629 658.03592998 435.72633568 C662.44045116 435.73898019 666.84473149 435.74520159 671.24926186 435.73391914 C675.28752671 435.72370817 679.32532524 435.73208701 683.36353528 435.7547821 C684.81852496 435.75975281 686.27355696 435.75809386 687.72852576 435.74884943 C701.7367343 435.66689744 713.64826123 438.51661078 724.02416992 448.30981445 C733.87165538 458.72683731 737.44430979 470.13051871 737.11401367 484.33325195 C736.36575975 496.31719171 730.67585903 506.34431068 722.00073242 514.5246582 C718.5563958 517.35078056 714.95619606 519.51365037 710.86791992 521.2746582 C709.70640632 521.78432381 708.54489271 522.29398941 707.34818172 522.81909943 C699.72945303 525.30848002 691.54265087 524.69463944 683.61732483 524.66906738 C681.74402118 524.67395914 679.87072054 524.68015026 677.99742502 524.68752527 C672.86070529 524.70391146 667.72413918 524.70160954 662.58740246 524.6961503 C657.04333119 524.69347853 651.49930071 524.70801459 645.95524597 524.72024536 C635.09848275 524.74129442 624.24177293 524.74584054 613.38499171 524.74405748 C604.56091416 524.74274973 595.73685327 524.74655464 586.91277885 524.75398254 C584.37080763 524.75608174 581.8288364 524.75817934 579.28686517 524.76027536 C578.02165611 524.76131889 576.75644705 524.76236242 575.45289832 524.76343757 C558.32330192 524.77696923 541.19371173 524.78456476 524.06411076 524.78011322 C523.05975241 524.77985529 523.05975241 524.77985529 522.035104 524.77959215 C518.64158768 524.77870328 515.24807138 524.77775847 511.85455508 524.77679414 C510.84364271 524.77650759 510.84364271 524.77650759 509.81230788 524.77621525 C508.44943558 524.77582815 507.08656329 524.77543783 505.723691 524.77504427 C484.51496819 524.76907358 463.30635447 524.78451748 442.09765625 524.81665039 C418.25967101 524.85273642 394.42175441 524.87201516 370.5837335 524.86711168 C357.96547311 524.86486645 345.34732088 524.87011831 332.72908211 524.89500427 C321.98807776 524.91600766 311.24724091 524.91961869 300.50622971 524.90070468 C295.02647006 524.89154152 289.54702283 524.89042201 284.06728745 524.91106033 C279.04919633 524.92975099 274.03167391 524.92528796 269.01360457 524.90251452 C267.20011331 524.89832402 265.3865786 524.90254385 263.57313324 524.91611046 C252.04011349 524.99650205 242.98758181 524.2574363 234.18432617 516.05200195 C229.06154116 509.61231331 226.63735736 501.46540728 223.80541992 493.8371582 C223.12261551 492.03806578 222.43798852 490.23966421 221.75170898 488.44189453 C220.25327294 484.51109363 218.76375608 480.57706069 217.27954102 476.64086914 C214.76566749 469.98755358 212.20560604 463.3524923 209.63745117 456.7199707 C209.18904373 455.56173798 208.74063629 454.40350525 208.27864075 453.21017456 C207.3582573 450.83306507 206.43781094 448.45597993 205.51730347 446.07891846 C203.15737664 439.97959738 200.80542045 433.87720784 198.45385742 427.7746582 C197.98614426 426.56093536 197.51843109 425.34721252 197.0365448 424.09671021 C188.55924856 402.09434706 180.0982485 380.08571863 171.63867188 358.07653809 C168.75718116 350.57991408 165.87532249 343.08343166 162.99291992 335.5871582 C162.5834613 334.52226166 162.17400269 333.45736511 161.75213623 332.36019897 C154.67448316 313.95493283 147.57646827 295.55756297 140.47296143 277.16226196 C133.92488207 260.20473529 127.39003664 243.24218647 120.86791992 226.2746582 C114.16216849 208.83175636 107.45015103 191.3912798 100.72509766 173.95581055 C99.80128872 171.56042085 98.87777071 169.16491893 97.95458984 166.76928711 C95.80704413 161.19691029 93.65482515 155.62644743 91.49243164 150.05981445 C89.88037749 145.90724218 88.28693175 141.74844411 86.71390057 137.58099365 C85.98643522 135.65829507 85.25329503 133.73786319 84.51808167 131.81811523 C83.59377636 129.40233233 82.67887127 126.98292307 81.7752533 124.55932617 C78.70987933 116.60320993 75.27842782 108.32651813 67.24291992 104.3371582 C66.5081543 103.95688477 65.77338867 103.57661133 65.01635742 103.18481445 C60.6024439 101.31492018 56.72918866 101.14620374 51.93481445 101.1328125 C50.89965446 101.12760086 50.89965446 101.12760086 49.84358215 101.12228394 C48.34693325 101.11494411 46.85027358 101.1095893 45.35361099 101.10599327 C42.97180807 101.09878947 40.59020665 101.08308939 38.20846558 101.06465149 C31.43677718 101.01239894 24.66519573 100.96433501 17.89331055 100.94873047 C13.74521674 100.93854789 9.59762683 100.90896062 5.44973373 100.86741066 C3.88158894 100.85523236 2.3133725 100.84995486 0.74518204 100.85220909 C-15.91148901 100.87024348 -29.99141328 97.65349615 -42.81958008 86.2121582 C-52.22791808 76.0556873 -56.9848935 63.29106152 -57.44458008 49.5246582 C-56.81807695 34.78821516 -51.14861438 22.8209353 -40.56958008 12.6496582 C-28.50481923 2.58004263 -15.2508885 -0.03143881 0 0 Z " fill="#bba9c9" transform="translate(182.132080078125,-0.274658203125)"/>
<path d="M0 0 C17.634375 -0.0825 35.26875 -0.165 53.4375 -0.25 C58.97329834 -0.28641602 64.50909668 -0.32283203 70.21264648 -0.36035156 C77.05480957 -0.37841797 77.05480957 -0.37841797 80.27381897 -0.3817749 C82.48727144 -0.38785423 84.70071199 -0.40178918 86.91407776 -0.42230225 C107.98913841 -0.60759061 127.77346328 0.4235485 143.93359375 15.6875 C156.98279592 30.29076595 158.71544144 49.79983985 158.140625 68.50292969 C157.28648662 83.66981753 153.31344302 97.52351532 143 109 C131.24390244 119 131.24390244 119 125 119 C126.98981151 122.67225376 128.99285303 126.33720155 131 130 C131.34321289 130.62729004 131.68642578 131.25458008 132.04003906 131.90087891 C138.40532308 143.51368258 145.01212323 154.97834931 151.703125 166.40625 C152.24775391 167.33695313 152.79238281 168.26765625 153.35351562 169.2265625 C154.46986769 171.1070132 155.60466567 172.9766124 156.75585938 174.8359375 C157.30564453 175.72539063 157.85542969 176.61484375 158.421875 177.53125 C159.1658252 178.71557617 159.1658252 178.71557617 159.92480469 179.92382812 C161 182 161 182 161 185 C154.34959951 185.43349551 147.70285575 185.72960513 141.04150391 185.93383789 C138.78035493 186.01899049 136.52013329 186.13477275 134.26220703 186.2824707 C116.10120793 187.44006416 116.10120793 187.44006416 111.07580566 183.48602295 C107.75040968 179.51722119 105.78609844 174.9968782 103.90692139 170.20993042 C102.59459735 167.01213968 100.88570401 164.20647504 99.09375 161.25 C98.50215088 160.21738037 97.91055176 159.18476074 97.30102539 158.12084961 C96.05324498 155.95867298 94.78817925 153.80641463 93.50952148 151.66235352 C90.5858689 146.72718186 87.86928224 142.00354716 85.94140625 136.58984375 C83.35893817 129.72589052 83.35893817 129.72589052 78 125 C67.41520715 122.64620542 56.79978836 123.60488579 46 124 C46 144.13 46 164.26 46 185 C30.82 185 15.64 185 0 185 C0 123.95 0 62.9 0 0 Z M46 38 C46 54.17 46 70.34 46 87 C53.92 87.04125 61.84 87.0825 70 87.125 C73.72796875 87.15231201 73.72796875 87.15231201 77.53125 87.18017578 C79.52083114 87.18602191 81.51041469 87.19111719 83.5 87.1953125 C84.51707031 87.20554443 85.53414062 87.21577637 86.58203125 87.22631836 C93.45692872 87.22799027 99.59135079 86.8592632 105.75 83.5 C112.51459007 75.98378882 112.75161482 66.950107 112.38671875 57.3046875 C111.92012792 50.54280021 110.27600323 45.22181268 105.375 40.4375 C101.78844657 38.26669134 99.91671154 37.87690249 95.72412109 37.88647461 C94.6231308 37.88655014 93.5221405 37.88662567 92.38778687 37.88670349 C91.19505157 37.89186478 90.00231628 37.89702606 88.7734375 37.90234375 C87.55548492 37.9037587 86.33753235 37.90517365 85.08267212 37.90663147 C81.1800901 37.91224361 77.27756477 37.92479821 73.375 37.9375 C70.73437583 37.94251343 68.09375076 37.94707661 65.453125 37.95117188 C58.96871041 37.9613675 52.48441891 37.98094064 46 38 Z " fill="#bba9c9" transform="translate(440,884)"/>
<path d="M0 0 C0.67675781 0.57105469 1.35351562 1.14210938 2.05078125 1.73046875 C14.99596315 13.51938197 19.13043305 29.17389742 21 46 C5.82 46 -9.36 46 -25 46 C-25.99 42.37 -26.98 38.74 -28 35 C-31.88445924 27.37495038 -38.1565991 23.42834424 -46.0625 20.6875 C-60.9834037 15.9408501 -81.56086679 15.50921606 -95.83203125 22.359375 C-107.38330484 28.9214455 -113.46565318 38.37733277 -117 51 C-121.82500358 73.21682442 -120.35429015 97.55003019 -108 117 C-105.90162132 119.61585215 -103.8982652 121.33453472 -101 123 C-100.21496094 123.45503906 -99.42992188 123.91007812 -98.62109375 124.37890625 C-84.38081142 132.00995831 -67.57552238 132.42762305 -52 129 C-45.07531476 126.89667315 -39.61782332 124.56812623 -34 120 C-33.34 120 -32.68 120 -32 120 C-31.731875 119.46375 -31.46375 118.9275 -31.1875 118.375 C-30.31657696 116.63315392 -29.41644382 114.90583217 -28.5 113.1875 C-26.64465663 109.46668032 -26.64465663 109.46668032 -25 103 C-10.15 103 4.7 103 20 103 C20 120.77901236 16.84448776 134.73040875 4.27734375 147.8203125 C-4.63235728 156.34795088 -15.01668108 161.38499706 -26.8125 164.75 C-27.49812012 164.94859619 -28.18374023 165.14719238 -28.89013672 165.35180664 C-41.39611055 168.69982876 -54.08267703 169.35162982 -66.95092773 169.31567383 C-69.30044171 169.31251621 -71.6486872 169.33608201 -73.99804688 169.36132812 C-99.14512184 169.46653298 -124.90273794 164.04455363 -143.34375 145.8203125 C-153.94279435 134.56662129 -159.877679 121.0288637 -163 106 C-163.26816528 104.7792981 -163.26816528 104.7792981 -163.54174805 103.53393555 C-165.24535031 94.82014276 -165.33857046 86.21000326 -165.31567383 77.3659668 C-165.31252676 74.83402866 -165.33600773 72.30327797 -165.36132812 69.77148438 C-165.457406 45.21559345 -160.23388476 20.49270765 -143 2 C-109.1761936 -30.64452948 -34.98476576 -30.65269346 0 0 Z " fill="#bba9c9" transform="translate(165,902)"/>
<path d="M0 0 C16.17 0 32.34 0 49 0 C51.94597349 7.07033638 54.85832644 14.09314917 57.5390625 21.2578125 C57.8573703 22.10294403 58.1756781 22.94807556 58.50363159 23.81881714 C59.18829053 25.6371765 59.872035 27.45588041 60.55493164 29.27490234 C62.43066277 34.27086065 64.31352678 39.26413231 66.1953125 44.2578125 C66.58821472 45.30100647 66.98111694 46.34420044 67.38592529 47.41900635 C71.33870763 57.90973928 75.32151048 68.38898754 79.30801392 78.86694336 C88.25447399 102.38212237 97.16631799 125.91023209 106.03991699 149.45300293 C106.99277374 151.9808295 107.94607273 154.50848897 108.89941406 157.03613281 C110.35659007 160.9004104 111.81185936 164.7654003 113.26541138 168.63104248 C113.7917972 170.03037145 114.31870359 171.42950473 114.84616089 172.82843018 C115.55657849 174.71314813 116.26469144 176.59873432 116.97265625 178.484375 C117.36718994 179.53334961 117.76172363 180.58232422 118.16821289 181.66308594 C119 184 119 184 119 185 C103.82 185 88.64 185 73 185 C68.4527826 174.08667825 64.20884918 163.0482291 60 152 C24.855 151.505 24.855 151.505 -11 151 C-11.99 154.3 -12.98 157.6 -14 161 C-14.7285437 163.08455881 -15.47891215 165.16176828 -16.26171875 167.2265625 C-16.61967529 168.17611816 -16.97763184 169.12567383 -17.34643555 170.10400391 C-17.78898682 171.26593262 -18.23153809 172.42786133 -18.6875 173.625 C-20.8221875 179.255625 -20.8221875 179.255625 -23 185 C-38.18 185 -53.36 185 -69 185 C-68.20428736 181.02143682 -67.26927271 177.77368518 -65.84887695 174.01879883 C-65.39856613 172.82269485 -64.94825531 171.62659088 -64.48429871 170.39424133 C-63.98570587 169.08180771 -63.48703081 167.76940532 -62.98828125 166.45703125 C-62.46694107 165.07675888 -61.94593756 163.69635931 -61.42524719 162.31584167 C-60.01882914 158.58996126 -58.60759062 154.86592357 -57.1954422 151.14221191 C-55.71199392 147.22801784 -54.2329949 143.31214307 -52.75341797 139.39648438 C-49.45442941 130.66861644 -46.14878117 121.94328013 -42.84111786 113.21869659 C-42.03671073 111.09683539 -41.23246151 108.97491443 -40.42828369 106.85296631 C-36.27510684 95.89424276 -32.1199202 84.93628289 -27.9597168 73.98022461 C-18.60187567 49.33439587 -9.30083199 24.66742396 0 0 Z M24 58 C21.38844425 64.8743327 18.78043349 71.74999896 16.17697144 78.62740135 C14.96803776 81.82062743 13.75787636 85.01337696 12.54492188 88.20507812 C11.15130621 91.87232209 9.76300711 95.54156689 8.375 99.2109375 C7.93752441 100.35992523 7.50004883 101.50891296 7.04931641 102.69271851 C6.64890137 103.7536673 6.24848633 104.81461609 5.8359375 105.90771484 C5.48063965 106.84481293 5.1253418 107.78191101 4.75927734 108.74740601 C3.89352963 110.91968604 3.89352963 110.91968604 4 113 C17.86 113 31.72 113 46 113 C41.29478244 99.60868639 41.29478244 99.60868639 36.421875 86.28125 C36.1243634 85.48642212 35.82685181 84.69159424 35.52032471 83.87268066 C34.90650754 82.23618532 34.29167265 80.60007131 33.67578125 78.96435547 C33.0482765 77.29398812 32.42402752 75.62239472 31.80273438 73.94970703 C30.89093079 71.49510535 29.97004421 69.04409599 29.046875 66.59375 C28.76978699 65.84291138 28.49269897 65.09207275 28.20721436 64.31848145 C26.9770563 60.44895654 26.9770563 60.44895654 24 58 Z " fill="#bba9c9" transform="translate(288,884)"/>
<path d="M0 0 C49.5 0 99 0 150 0 C150 12.54 150 25.08 150 38 C115.35 38 80.7 38 45 38 C45 51.53 45 65.06 45 79 C71.07 79 97.14 79 124 79 C124 91.21 124 103.42 124 116 C97.93 116 71.86 116 45 116 C45 138.77 45 161.54 45 185 C30.15 185 15.3 185 0 185 C0 123.95 0 62.9 0 0 Z " fill="#bba9c9" transform="translate(909,884)"/>
<path d="M0 0 C12.34319673 13.06926713 18.25750695 30.3864719 18.1015625 48.203125 C16.99303673 67.24601411 9.23232642 84.24469113 -4.8984375 97.203125 C-20.18001917 109.23228866 -37.74543148 114.50407172 -57.171875 112.734375 C-75.42701055 110.13196574 -90.17722457 101.68358728 -101.9921875 87.73046875 C-113.32209904 72.44999594 -117.82203294 54.37111058 -115.22607422 35.62329102 C-113.12162589 22.48695444 -107.01044391 9.94027946 -97.8984375 0.203125 C-97.20621094 -0.54195312 -96.51398437 -1.28703125 -95.80078125 -2.0546875 C-86.44220032 -11.27265536 -73.78039448 -17.36983963 -60.8984375 -19.796875 C-60.19074219 -19.93738281 -59.48304688 -20.07789063 -58.75390625 -20.22265625 C-36.52626093 -23.6454662 -15.9183017 -15.06670531 0 0 Z " fill="#bba9c9" transform="translate(881.8984375,603.796875)"/>
<path d="M0 0 C13.15092673 12.47652024 20.74701121 29.05994366 21.48681641 47.16723633 C21.84424595 65.15713877 15.87553814 82.41635959 3.33935547 95.52294922 C-10.68597103 109.59606218 -27.05902328 116.34676031 -46.85742188 116.60058594 C-62.19370847 116.4576078 -75.90214051 111.03889788 -87.84765625 101.58203125 C-88.85828125 100.86015625 -89.86890625 100.13828125 -90.91015625 99.39453125 C-102.59801889 89.22973286 -110.78518611 72.74629537 -112.02783203 57.34960938 C-113.15887797 37.09618458 -108.33125813 19.61750632 -94.9921875 3.85546875 C-85.06060258 -6.67309669 -72.03498618 -13.61608228 -57.84765625 -16.41796875 C-57.14898437 -16.55976562 -56.4503125 -16.7015625 -55.73046875 -16.84765625 C-35.12818515 -20.03517937 -15.61219909 -13.25644888 0 0 Z " fill="#bba9c9" transform="translate(554.84765625,600.41796875)"/>
<path d="M0 0 C43.71441821 -4.36398202 43.71441821 -4.36398202 52.69775391 2.24560547 C58.19698706 8.10926363 61.01926736 15.14323028 63.70361328 22.63183594 C65.58615772 27.5229062 68.31541697 31.62446808 71.25 35.9375 C72.20974752 37.4380165 73.16423984 38.94190807 74.11328125 40.44921875 C74.5820166 41.1870459 75.05075195 41.92487305 75.53369141 42.68505859 C77.10601224 45.16736732 78.66907046 47.65533881 80.23046875 50.14453125 C81.03532715 51.42565796 81.03532715 51.42565796 81.85644531 52.73266602 C82.87428967 54.3532641 83.89068241 55.97477527 84.90527344 57.59741211 C87.79028061 62.18340907 90.8086085 66.62124869 94 71 C100.466303 60.78878036 106.90880329 50.56311531 113.3125 40.3125 C113.93294189 39.31959961 114.55338379 38.32669922 115.19262695 37.30371094 C118.52769151 31.96453031 121.85791589 26.6223763 125.18359375 21.27734375 C125.86446045 20.18446045 126.54532715 19.09157715 127.24682617 17.96557617 C128.55450868 15.86643097 129.86072816 13.76637345 131.1652832 11.6652832 C131.755271 10.7187085 132.34525879 9.77213379 132.953125 8.796875 C133.47036133 7.96510742 133.98759766 7.13333984 134.52050781 6.27636719 C135.00874023 5.52516602 135.49697266 4.77396484 136 4 C136.42761124 3.30241577 136.85522247 2.60483154 137.29579163 1.8861084 C139 0 139 0 141.18302917 -0.48101807 C142.45210869 -0.4676944 142.45210869 -0.4676944 143.74682617 -0.45410156 C144.70759567 -0.45379944 145.66836517 -0.45349731 146.6582489 -0.45318604 C147.69270645 -0.43254089 148.727164 -0.41189575 149.79296875 -0.390625 C151.38471672 -0.38213531 151.38471672 -0.38213531 153.00862122 -0.37347412 C156.40203735 -0.35106143 159.79440235 -0.30085449 163.1875 -0.25 C165.48631289 -0.2299414 167.78514231 -0.21168952 170.08398438 -0.1953125 C175.72301564 -0.1511807 181.36143273 -0.08421972 187 0 C185.75617412 3.27627964 184.36915188 6.26208087 182.56640625 9.265625 C181.84940552 10.46300293 181.84940552 10.46300293 181.11791992 11.68457031 C180.60463135 12.53116211 180.09134277 13.37775391 179.5625 14.25 C179.02536377 15.14041992 178.48822754 16.03083984 177.93481445 16.94824219 C174.18318146 23.13388836 170.31504478 29.23259191 166.35546875 35.28662109 C162.34270552 41.43223051 158.44452501 47.64612555 154.5625 53.875 C150.06188371 61.09632784 145.55210383 68.31100203 141 75.5 C135.59702984 84.03433201 130.24284083 92.59880862 124.8984375 101.16992188 C124.29 102.14509766 123.6815625 103.12027344 123.0546875 104.125 C122.51312012 104.99382812 121.97155273 105.86265625 121.41357422 106.7578125 C120.30151626 108.52174002 119.15666805 110.26499792 118 112 C117.66923038 115.25715176 117.66923038 115.25715176 117.68115234 119.04174805 C117.67110672 119.75419678 117.6610611 120.46664551 117.65071106 121.20068359 C117.61983313 123.55435381 117.60283138 125.90791005 117.5859375 128.26171875 C117.56722953 129.8941191 117.5476564 131.52650974 117.5272522 133.15888977 C117.47588567 137.45454185 117.43628423 141.7502253 117.39910889 146.04602051 C117.3520623 151.20065873 117.29044514 156.35514076 117.23126221 161.50965118 C117.14299481 169.33970457 117.07327022 177.16972719 117 185 C101.82 185 86.64 185 71 185 C71.06703125 180.02292969 71.1340625 175.04585937 71.203125 169.91796875 C71.2188768 166.72303032 71.23101314 163.52886116 71.23046875 160.33398438 C71.22994247 155.28664532 71.2412043 150.24169099 71.33251953 145.19506836 C71.95300287 118.62905321 71.95300287 118.62905321 59.4798584 95.78115845 C57.33202766 93.1960281 55.69125721 90.44841078 53.96875 87.5625 C53.39253906 86.63888672 52.81632812 85.71527344 52.22265625 84.76367188 C51.65417969 83.85166016 51.08570313 82.93964844 50.5 82 C46.01939147 74.82094727 41.52586 67.65061349 37 60.5 C32.47413779 53.34938302 27.98116718 46.1787063 23.5 39 C18.78537579 31.44912634 14.06246889 23.90370069 9.3125 16.375 C8.83167969 15.611875 8.35085938 14.84875 7.85546875 14.0625 C5.84013589 10.87251599 3.80866638 7.70899656 1.66796875 4.6015625 C0 2 0 2 0 0 Z " fill="#bba9c9" transform="translate(1093,884)"/>
<path d="M0 0 C53.13 0 106.26 0 161 0 C161 12.54 161 25.08 161 38 C141.86 38 122.72 38 103 38 C103 86.51 103 135.02 103 185 C88.15 185 73.3 185 58 185 C58 136.49 58 87.98 58 38 C38.86 38 19.72 38 0 38 C0 25.46 0 12.92 0 0 Z " fill="#bba9c9" transform="translate(635,884)"/>
<path d="M0 0 C14.85 0 29.7 0 45 0 C45 61.05 45 122.1 45 185 C30.15 185 15.3 185 0 185 C0 123.95 0 62.9 0 0 Z " fill="#bba9c9" transform="translate(830,884)"/>
</svg>
